<?xml version="1.0" encoding="UTF-8"?>
<svg version="1.1" viewBox="0 0 96 96" xmlns="http://www.w3.org/2000/svg" xmlns:xlink="http://www.w3.org/1999/xlink">
<title>Group</title>
<desc>Created with Sketch.</desc>
<defs>
<rect id="a" width="96" height="96"/>
</defs>
<g fill="none" fill-rule="evenodd">
<rect width="96" height="96" fill="#fff"/>
<mask id="b" fill="white">
<use xlink:href="#a"/>
</mask>
<g mask="url(#b)">
<g transform="translate(17 13)">
<g fill-rule="nonzero">
<path d="m3.131 30.674c0.58243 1.1987 1.3325 2.305 2.2268 3.2842 0.42455 0.37837 0.87144 0.7299 1.3382 1.0526 0.16533-0.11579 0.3255-0.24211 0.51667-0.34737 1.6678-1.0512 3.5335-1.7343 5.4767-2.0053 0.95177-7.9692 6.7393-14.458 14.436-16.184l-0.031-0.047368c-3.8182-6.0789-11.883-8.1-18.29-4.3737-1.4867 0.85992-2.8027 1.9952-3.8802 3.3474-0.14467 0.17895-0.279 0.36316-0.4185 0.52632-2.9626 4.0221-3.6077 9.3435-1.6947 13.979 0.093 0.26316 0.19978 0.5193 0.32033 0.76842z" fill="#69CEF2"/>
<path d="m59.117 39.189c-0.5825-1.1987-1.3326-2.3049-2.2268-3.2842-0.42453-0.37839-0.87143-0.72992-1.3382-1.0526-0.16533 0.11579-0.3255 0.24211-0.51667 0.34737-1.6678 1.0512-3.5335 1.7343-5.4767 2.0053-0.95177 7.9692-6.7393 14.458-14.436 16.184l0.031 0.047368c3.8182 6.0789 11.883 8.1 18.29 4.3737 1.4867-0.85992 2.8027-1.9952 3.8802-3.3474 0.14467-0.17895 0.279-0.36316 0.4185-0.52632 2.9626-4.0221 3.6077-9.3435 1.6947-13.979-0.093-0.26316-0.19978-0.5193-0.32033-0.76842z" fill="#69CEF2"/>
<path d="m59.634 15.484l-0.031-0.052632c-0.12917-0.21053-0.26867-0.4-0.40817-0.6s-0.33583-0.47895-0.51667-0.71053c-6.5285-8.9608-16.868-14.204-27.822-14.108-10.954 0.095738-21.204 5.5186-27.58 14.592-0.1395 0.19474-0.27383 0.4-0.40817 0.6-3.9355 5.9968-2.8724 14.04 2.48 18.763-0.89431-0.97926-1.6444-2.0855-2.2268-3.2842-0.12056-0.24912-0.2325-0.5-0.33583-0.75263-1.9131-4.6355-1.2679-9.9569 1.6947-13.979 0.1395-0.18421 0.27383-0.36842 0.4185-0.52632 1.0775-1.3522 2.3934-2.4874 3.8802-3.3474 6.417-3.7316 14.467-1.7053 18.29 4.3737l1.178 1.9421 5.7298 9.4421 1.6792 2.7632c2.6507 4.3633 7.3851 6.9547 12.42 6.798 5.0348-0.15675 9.6051-3.0378 11.989-7.5579s2.22-9.9925-0.43071-14.356z" fill="#2055A6"/>
<path d="m59.634 39.179c-0.74631-1.2281-1.6713-2.3337-2.7435-3.2789 0.89431 0.97926 1.6444 2.0855 2.2268 3.2842 0.12056 0.24912 0.2325 0.5 0.33583 0.75263 1.9131 4.6355 1.2679 9.9569-1.6947 13.979-0.1395 0.18421-0.27383 0.36842-0.4185 0.52632-1.0775 1.3522-2.3934 2.4874-3.8802 3.3474-6.417 3.7316-14.467 1.7053-18.29-4.3737l-1.178-1.9421-5.7298-9.4421-1.6792-2.7632c-2.6442-4.3615-7.3717-6.9546-12.402-6.8026-5.03 0.15199-9.5983 3.026-11.984 7.5395-2.3858 4.5135-2.2266 9.9806 0.41763 14.342l0.031 0.052632c0.12917 0.21053 0.26867 0.4 0.40817 0.6s0.33583 0.47895 0.51667 0.71053c6.5238 8.9623 16.859 14.21 27.811 14.12 10.953-0.08949 21.204-5.5049 27.586-14.573 0.1395-0.19474 0.27383-0.4 0.40817-0.6 3.0484-4.6648 3.1493-10.711 0.25833-15.479z" fill="#2055A6"/>
</g>
</g>
</g>
</g>
</svg>
