<?xml version="1.0" encoding="UTF-8" standalone="no"?>
<svg width="96px" height="96px" viewBox="0 0 96 96" version="1.1" xmlns="http://www.w3.org/2000/svg" xmlns:xlink="http://www.w3.org/1999/xlink">
    <!-- Generator: Sketch 40.1 (33804) - http://www.bohemiancoding.com/sketch -->
    <title>flow-logo-icon-only-color</title>
    <desc>Created with Sketch.</desc>
    <defs>
        <rect id="path-1" x="0" y="0" width="96" height="96"></rect>
    </defs>
    <g id="cutting-board" stroke="none" stroke-width="1" fill="none" fill-rule="evenodd">
        <g id="flow-logo-icon-only-color">
            <mask id="mask-2" fill="white">
                <use xlink:href="#path-1"></use>
            </mask>
            <g id="Mask"></g>
            <g id="icon" mask="url(#mask-2)">
                <g transform="translate(17.000000, 13.000000)" id="Shape">
                    <path d="M3.131,30.6736842 C3.71343358,31.8723767 4.46352562,32.9786383 5.35783333,33.9578947 C5.78238326,34.3362617 6.22927476,34.6877964 6.696,35.0105263 C6.86133333,34.8947368 7.0215,34.7684211 7.21266667,34.6631579 C8.88047108,33.61194 10.746203,32.9288085 12.6893333,32.6578947 C13.6411031,24.6886733 19.4285964,18.2001604 27.125,16.4736842 L27.094,16.4263158 C23.2758333,10.3473684 15.2106667,8.32631579 8.804,12.0526316 C7.31727604,12.912556 6.00131882,14.0478148 4.92383333,15.4 C4.77916667,15.5789474 4.64483333,15.7631579 4.50533333,15.9263158 C1.54272137,19.9484068 0.897607936,25.2698112 2.81066667,29.9052632 C2.90366667,30.1684211 3.01044444,30.4245614 3.131,30.6736842 L3.131,30.6736842 Z" fill="#69CEF2"></path>
                    <path d="M59.117,39.1894737 C58.5345034,37.9908189 57.7844174,36.8845662 56.8901667,35.9052632 C56.4656332,35.5268759 56.0187404,35.1753401 55.552,34.8526316 C55.3866667,34.9684211 55.2265,35.0947368 55.0353333,35.2 C53.3675289,36.2512179 51.501797,36.9343494 49.5586667,37.2052632 C48.6068969,45.1744846 42.8194036,51.6629975 35.123,53.3894737 L35.154,53.4368421 C38.9721667,59.5157895 47.0373333,61.5368421 53.444,57.8105263 C54.930724,56.9506019 56.2466812,55.8153431 57.3241667,54.4631579 C57.4688333,54.2842105 57.6031667,54.1 57.7426667,53.9368421 C60.7052786,49.9147511 61.3503921,44.5933467 59.4373333,39.9578947 C59.3443333,39.6947368 59.2375556,39.4385965 59.117,39.1894737 L59.117,39.1894737 Z" fill="#69CEF2"></path>
                    <path d="M59.6336667,15.4842105 L59.6026667,15.4315789 C59.4735,15.2210526 59.334,15.0315789 59.1945,14.8315789 C59.055,14.6315789 58.8586667,14.3526316 58.6778333,14.1210526 C52.1493277,5.16020907 41.8099758,-0.0826884213 30.8558877,0.0130494367 C19.9017996,0.108787295 9.65227885,5.53162989 3.27566667,14.6052632 C3.13616667,14.8 3.00183333,15.0052632 2.8675,15.2052632 C-1.06800426,21.2020571 -0.00486791637,29.2455228 5.3475,33.9684211 C4.45319228,32.9891646 3.70310025,31.882903 3.12066667,30.6842105 C3.00011111,30.4350877 2.88816667,30.1842105 2.78483333,29.9315789 C0.871774602,25.296127 1.51688804,19.9747226 4.4795,15.9526316 C4.619,15.7684211 4.75333333,15.5842105 4.898,15.4263158 C5.97548549,14.0741306 7.29144271,12.9388718 8.77816667,12.0789474 C15.1951667,8.34736842 23.2448333,10.3736842 27.0681667,16.4526316 L28.2461667,18.3947368 L33.976,27.8368421 L35.6551667,30.6 C38.3058392,34.9633411 43.0402997,37.5547079 48.0751228,37.3979576 C53.1099459,37.2412074 57.6802222,34.3601542 60.0643728,29.8400629 C62.4485234,25.3199716 62.2843392,19.8475516 59.6336667,15.4842105 L59.6336667,15.4842105 Z" fill="#2055A6"></path>
                    <path d="M59.6336667,39.1789474 C58.8873604,37.9508087 57.9623175,36.8452257 56.8901667,35.9 C57.7844744,36.8792564 58.5345664,37.985518 59.117,39.1842105 C59.2375556,39.4333333 59.3495,39.6842105 59.4528333,39.9368421 C61.3658921,44.572294 60.7207786,49.8936985 57.7581667,53.9157895 C57.6186667,54.1 57.4843333,54.2842105 57.3396667,54.4421053 C56.2621812,55.7942904 54.946224,56.9295493 53.4595,57.7894737 C47.0425,61.5210526 38.9928333,59.4947368 35.1695,53.4157895 L33.9915,51.4736842 L28.2616667,42.0315789 L26.5825,39.2684211 C23.9382881,34.9069603 19.2107821,32.31382 14.1807878,32.4658109 C9.15079355,32.6178018 4.58248679,35.491833 2.19670448,40.0052846 C-0.189077833,44.5187362 -0.029878614,49.9859077 2.61433333,54.3473684 L2.64533333,54.4 C2.7745,54.6105263 2.914,54.8 3.0535,55 C3.193,55.2 3.38933333,55.4789474 3.57016667,55.7105263 C10.0939714,64.6728643 20.4291115,69.920086 31.3816278,69.8305964 C42.3341442,69.7411068 52.5853283,64.3256807 58.9671667,55.2578947 C59.1066667,55.0631579 59.241,54.8578947 59.3753333,54.6578947 C62.4237299,49.9930936 62.5246417,43.9466096 59.6336667,39.1789474 L59.6336667,39.1789474 Z" fill="#2055A6"></path>
                </g>
            </g>
        </g>
    </g>
</svg>