<?xml version="1.0" encoding="UTF-8" standalone="no"?>
<svg width="336px" height="96px" viewBox="0 0 336 96" version="1.1" xmlns="http://www.w3.org/2000/svg" xmlns:xlink="http://www.w3.org/1999/xlink">
    <!-- Generator: Sketch 40.1 (33804) - http://www.bohemiancoding.com/sketch -->
    <title>flow-logo-icon-&amp;-type-color</title>
    <desc>Created with Sketch.</desc>
    <defs>
        <rect id="path-1" x="0" y="0" width="336" height="96"></rect>
    </defs>
    <g id="cutting-board" stroke="none" stroke-width="1" fill="none" fill-rule="evenodd">
        <g id="flow-logo-icon-&amp;-type-color">
            <mask id="mask-2" fill="white">
                <use xlink:href="#path-1"></use>
            </mask>
            <g id="Mask"></g>
            <g id="icon" mask="url(#mask-2)">
                <g transform="translate(17.000000, 13.000000)" id="Shape">
                    <path d="M3.131,30.6736842 C3.71343358,31.8723767 4.46352562,32.9786383 5.35783333,33.9578947 C5.78238326,34.3362617 6.22927476,34.6877964 6.696,35.0105263 C6.86133333,34.8947368 7.0215,34.7684211 7.21266667,34.6631579 C8.88047108,33.61194 10.746203,32.9288085 12.6893333,32.6578947 C13.6411031,24.6886733 19.4285964,18.2001604 27.125,16.4736842 L27.094,16.4263158 C23.2758333,10.3473684 15.2106667,8.32631579 8.804,12.0526316 C7.31727604,12.912556 6.00131882,14.0478148 4.92383333,15.4 C4.77916667,15.5789474 4.64483333,15.7631579 4.50533333,15.9263158 C1.54272137,19.9484068 0.897607936,25.2698112 2.81066667,29.9052632 C2.90366667,30.1684211 3.01044444,30.4245614 3.131,30.6736842 L3.131,30.6736842 Z" fill="#69CEF2"></path>
                    <path d="M59.117,39.1894737 C58.5345034,37.9908189 57.7844174,36.8845662 56.8901667,35.9052632 C56.4656332,35.5268759 56.0187404,35.1753401 55.552,34.8526316 C55.3866667,34.9684211 55.2265,35.0947368 55.0353333,35.2 C53.3675289,36.2512179 51.501797,36.9343494 49.5586667,37.2052632 C48.6068969,45.1744846 42.8194036,51.6629975 35.123,53.3894737 L35.154,53.4368421 C38.9721667,59.5157895 47.0373333,61.5368421 53.444,57.8105263 C54.930724,56.9506019 56.2466812,55.8153431 57.3241667,54.4631579 C57.4688333,54.2842105 57.6031667,54.1 57.7426667,53.9368421 C60.7052786,49.9147511 61.3503921,44.5933467 59.4373333,39.9578947 C59.3443333,39.6947368 59.2375556,39.4385965 59.117,39.1894737 L59.117,39.1894737 Z" fill="#69CEF2"></path>
                    <path d="M59.6336667,15.4842105 L59.6026667,15.4315789 C59.4735,15.2210526 59.334,15.0315789 59.1945,14.8315789 C59.055,14.6315789 58.8586667,14.3526316 58.6778333,14.1210526 C52.1493277,5.16020907 41.8099758,-0.0826884213 30.8558877,0.0130494367 C19.9017996,0.108787295 9.65227885,5.53162989 3.27566667,14.6052632 C3.13616667,14.8 3.00183333,15.0052632 2.8675,15.2052632 C-1.06800426,21.2020571 -0.00486791637,29.2455228 5.3475,33.9684211 C4.45319228,32.9891646 3.70310025,31.882903 3.12066667,30.6842105 C3.00011111,30.4350877 2.88816667,30.1842105 2.78483333,29.9315789 C0.871774602,25.296127 1.51688804,19.9747226 4.4795,15.9526316 C4.619,15.7684211 4.75333333,15.5842105 4.898,15.4263158 C5.97548549,14.0741306 7.29144271,12.9388718 8.77816667,12.0789474 C15.1951667,8.34736842 23.2448333,10.3736842 27.0681667,16.4526316 L28.2461667,18.3947368 L33.976,27.8368421 L35.6551667,30.6 C38.3058392,34.9633411 43.0402997,37.5547079 48.0751228,37.3979576 C53.1099459,37.2412074 57.6802222,34.3601542 60.0643728,29.8400629 C62.4485234,25.3199716 62.2843392,19.8475516 59.6336667,15.4842105 L59.6336667,15.4842105 Z" fill="#2055A6"></path>
                    <path d="M59.6336667,39.1789474 C58.8873604,37.9508087 57.9623175,36.8452257 56.8901667,35.9 C57.7844744,36.8792564 58.5345664,37.985518 59.117,39.1842105 C59.2375556,39.4333333 59.3495,39.6842105 59.4528333,39.9368421 C61.3658921,44.572294 60.7207786,49.8936985 57.7581667,53.9157895 C57.6186667,54.1 57.4843333,54.2842105 57.3396667,54.4421053 C56.2621812,55.7942904 54.946224,56.9295493 53.4595,57.7894737 C47.0425,61.5210526 38.9928333,59.4947368 35.1695,53.4157895 L33.9915,51.4736842 L28.2616667,42.0315789 L26.5825,39.2684211 C23.9382881,34.9069603 19.2107821,32.31382 14.1807878,32.4658109 C9.15079355,32.6178018 4.58248679,35.491833 2.19670448,40.0052846 C-0.189077833,44.5187362 -0.029878614,49.9859077 2.61433333,54.3473684 L2.64533333,54.4 C2.7745,54.6105263 2.914,54.8 3.0535,55 C3.193,55.2 3.38933333,55.4789474 3.57016667,55.7105263 C10.0939714,64.6728643 20.4291115,69.920086 31.3816278,69.8305964 C42.3341442,69.7411068 52.5853283,64.3256807 58.9671667,55.2578947 C59.1066667,55.0631579 59.241,54.8578947 59.3753333,54.6578947 C62.4237299,49.9930936 62.5246417,43.9466096 59.6336667,39.1789474 L59.6336667,39.1789474 Z" fill="#2055A6"></path>
                </g>
            </g>
            <g id="type" mask="url(#mask-2)" fill="#2055A6">
                <g transform="translate(108.000000, 22.000000)" id="Shape">
                    <path d="M2.2633758,51.4865823 C1.6650706,51.497401 1.08809165,51.2637038 0.664957287,50.8391654 C0.241822921,50.414627 0.00889861294,49.8357335 0.0196815287,49.235443 L0.0196815287,3.19898734 C0.00889861294,2.59869686 0.241822921,2.0198034 0.664957287,1.595265 C1.08809165,1.1707266 1.6650706,0.937029406 2.2633758,0.947848101 L31.0312102,0.947848101 C31.7793951,0.905022693 32.4897555,1.28116521 32.8767163,1.9250609 C33.2636771,2.5689566 33.2636771,3.37484087 32.8767163,4.01873657 C32.4897555,4.66263226 31.7793951,5.03877478 31.0312102,4.99594937 L4.50707006,4.99594937 L4.50707006,23.5908861 L21.9711465,23.5908861 C22.7193314,23.5480607 23.4296918,23.9242032 23.8166526,24.5680989 C24.2036134,25.2119946 24.2036134,26.0178788 23.8166526,26.6617745 C23.4296918,27.3056702 22.7193314,27.6818128 21.9711465,27.6389873 L4.50707006,27.6389873 L4.50707006,49.235443 C4.51785298,49.8357335 4.28492867,50.414627 3.86179431,50.8391654 C3.43865994,51.2637038 2.861681,51.497401 2.2633758,51.4865823 L2.2633758,51.4865823 Z"></path>
                    <path d="M75.6361146,46.8394937 C76.3842995,46.7966683 77.0946599,47.1728108 77.4816207,47.8167065 C77.8685815,48.4606022 77.8685815,49.2664864 77.4816207,49.9103821 C77.0946599,50.5542778 76.3842995,50.9304203 75.6361146,50.8875949 L46.6386624,50.8875949 C46.0403572,50.8984136 45.4633783,50.6647164 45.0402439,50.240178 C44.6171095,49.8156396 44.3841852,49.2367462 44.3949682,48.6364557 L44.3949682,2.62632911 C44.3500727,1.79422557 44.7670029,1.00531032 45.4786914,0.575708252 C46.1903799,0.146106188 47.0803845,0.146106188 47.7920729,0.575708252 C48.5037614,1.00531032 48.9206916,1.79422557 48.8757962,2.62632911 L48.8757962,46.8658228 L75.6295541,46.8658228 L75.6361146,46.8394937 Z"></path>
                    <path d="M106.883822,51.7827848 C91.9389809,51.7827848 81.7767516,39.8622785 81.7767516,25.9144304 C81.7767516,11.9665823 91.9389809,0.0460759494 106.883822,0.0460759494 C121.828662,0.0460759494 131.813758,11.9665823 131.813758,25.9144304 C131.813758,39.8622785 121.815541,51.7827848 106.883822,51.7827848 L106.883822,51.7827848 Z M106.883822,4.02177215 C94.0317834,4.02177215 86.2575796,14.441519 86.2575796,25.9144304 C86.2575796,37.3873418 94.0317834,47.8070886 106.883822,47.8070886 C119.73586,47.8070886 127.359172,37.3873418 127.359172,25.9144304 C127.359172,14.441519 119.722739,4.02177215 106.883822,4.02177215 L106.883822,4.02177215 Z"></path>
                    <path d="M188.693376,51.4865823 C187.694053,51.5636865 186.78607,50.9034232 186.548089,49.9265823 L173.184331,9.33367089 L159.820573,49.9265823 C159.582593,50.9034232 158.674609,51.5636865 157.675287,51.4865823 C156.681019,51.553374 155.780051,50.9009761 155.53,49.9331646 L140.519554,3.52810127 C140.435202,3.21608232 140.382451,2.89631865 140.362102,2.57367089 C140.345368,1.97691006 140.575665,1.39983487 140.99827,0.97956904 C141.420875,0.55930321 141.99806,0.333365555 142.592675,0.355443038 C143.611173,0.330935716 144.493578,1.05937436 144.665796,2.06683544 L157.668726,42.5017722 L171.032484,2.06683544 C171.262161,1.06190339 172.153446,0.349507593 173.181051,0.349507593 C174.208655,0.349507593 175.099941,1.06190339 175.329618,2.06683544 L188.686815,42.5017722 L201.689745,2.06683544 C201.864845,1.06199931 202.746468,0.337006164 203.762866,0.362025316 C204.357482,0.339947834 204.934667,0.565885489 205.357272,0.986151319 C205.779876,1.40641715 206.010173,1.98349234 205.993439,2.58025316 C205.974194,2.89823228 205.923651,3.21352215 205.842548,3.52151899 L190.858344,49.9265823 C190.607312,50.9032158 189.695968,51.559898 188.693376,51.4865823 L188.693376,51.4865823 Z"></path>
                </g>
            </g>
        </g>
    </g>
</svg>